<mxfile host="app.diagrams.net" agent="Mozilla/5.0 (Windows NT 10.0; Win64; x64) AppleWebKit/537.36 (KHTML, like Gecko) Chrome/126.0.0.0 YaBrowser/24.7.0.0 Safari/537.36" version="24.7.16">
  <diagram name="Страница — 1" id="gCwEAVih44WxEXfRGfYG">
    <mxGraphModel dx="1195" dy="659" grid="1" gridSize="10" guides="1" tooltips="1" connect="1" arrows="1" fold="1" page="0" pageScale="1" pageWidth="827" pageHeight="1169" background="none" math="0" shadow="0">
      <root>
        <mxCell id="0" />
        <mxCell id="1" parent="0" />
        <mxCell id="pjobG9JPlgg_OYao3Cxb-13" style="edgeStyle=orthogonalEdgeStyle;rounded=0;orthogonalLoop=1;jettySize=auto;html=1;entryX=0.5;entryY=0;entryDx=0;entryDy=0;" edge="1" parent="1" source="pjobG9JPlgg_OYao3Cxb-3" target="pjobG9JPlgg_OYao3Cxb-11">
          <mxGeometry relative="1" as="geometry" />
        </mxCell>
        <mxCell id="pjobG9JPlgg_OYao3Cxb-3" value="Начало" style="ellipse;whiteSpace=wrap;html=1;" vertex="1" parent="1">
          <mxGeometry x="360" y="150" width="120" height="40" as="geometry" />
        </mxCell>
        <mxCell id="pjobG9JPlgg_OYao3Cxb-19" value="" style="edgeStyle=orthogonalEdgeStyle;rounded=0;orthogonalLoop=1;jettySize=auto;html=1;" edge="1" parent="1" source="pjobG9JPlgg_OYao3Cxb-5" target="pjobG9JPlgg_OYao3Cxb-18">
          <mxGeometry relative="1" as="geometry" />
        </mxCell>
        <mxCell id="pjobG9JPlgg_OYao3Cxb-5" value="MVK 0xC7A6, A1" style="rounded=0;whiteSpace=wrap;html=1;" vertex="1" parent="1">
          <mxGeometry x="360" y="330" width="120" height="40" as="geometry" />
        </mxCell>
        <mxCell id="pjobG9JPlgg_OYao3Cxb-15" value="" style="edgeStyle=orthogonalEdgeStyle;rounded=0;orthogonalLoop=1;jettySize=auto;html=1;" edge="1" parent="1" source="pjobG9JPlgg_OYao3Cxb-11" target="pjobG9JPlgg_OYao3Cxb-12">
          <mxGeometry relative="1" as="geometry" />
        </mxCell>
        <mxCell id="pjobG9JPlgg_OYao3Cxb-11" value="Ввод A8" style="shape=parallelogram;perimeter=parallelogramPerimeter;whiteSpace=wrap;html=1;fixedSize=1;" vertex="1" parent="1">
          <mxGeometry x="360" y="210" width="120" height="40" as="geometry" />
        </mxCell>
        <mxCell id="pjobG9JPlgg_OYao3Cxb-17" value="" style="edgeStyle=orthogonalEdgeStyle;rounded=0;orthogonalLoop=1;jettySize=auto;html=1;" edge="1" parent="1" source="pjobG9JPlgg_OYao3Cxb-12" target="pjobG9JPlgg_OYao3Cxb-5">
          <mxGeometry relative="1" as="geometry" />
        </mxCell>
        <mxCell id="pjobG9JPlgg_OYao3Cxb-25" style="edgeStyle=orthogonalEdgeStyle;rounded=0;orthogonalLoop=1;jettySize=auto;html=1;entryX=0.5;entryY=0;entryDx=0;entryDy=0;" edge="1" parent="1" source="pjobG9JPlgg_OYao3Cxb-12" target="pjobG9JPlgg_OYao3Cxb-24">
          <mxGeometry relative="1" as="geometry" />
        </mxCell>
        <mxCell id="pjobG9JPlgg_OYao3Cxb-12" value="&lt;div style=&quot;text-align: start;&quot;&gt;B0&amp;nbsp;≥ 0&lt;/div&gt;" style="rhombus;whiteSpace=wrap;html=1;" vertex="1" parent="1">
          <mxGeometry x="360" y="270" width="120" height="40" as="geometry" />
        </mxCell>
        <mxCell id="pjobG9JPlgg_OYao3Cxb-21" value="" style="edgeStyle=orthogonalEdgeStyle;rounded=0;orthogonalLoop=1;jettySize=auto;html=1;" edge="1" parent="1" source="pjobG9JPlgg_OYao3Cxb-18" target="pjobG9JPlgg_OYao3Cxb-20">
          <mxGeometry relative="1" as="geometry" />
        </mxCell>
        <mxCell id="pjobG9JPlgg_OYao3Cxb-18" value="MVKLH 0x000E, A1" style="rounded=0;whiteSpace=wrap;html=1;" vertex="1" parent="1">
          <mxGeometry x="360" y="390" width="120" height="40" as="geometry" />
        </mxCell>
        <mxCell id="pjobG9JPlgg_OYao3Cxb-23" value="" style="edgeStyle=orthogonalEdgeStyle;rounded=0;orthogonalLoop=1;jettySize=auto;html=1;" edge="1" parent="1" source="pjobG9JPlgg_OYao3Cxb-20" target="pjobG9JPlgg_OYao3Cxb-22">
          <mxGeometry relative="1" as="geometry" />
        </mxCell>
        <mxCell id="pjobG9JPlgg_OYao3Cxb-20" value="ABS A1, A2" style="rounded=0;whiteSpace=wrap;html=1;" vertex="1" parent="1">
          <mxGeometry x="360" y="450" width="120" height="40" as="geometry" />
        </mxCell>
        <mxCell id="pjobG9JPlgg_OYao3Cxb-22" value="Конец" style="ellipse;whiteSpace=wrap;html=1;" vertex="1" parent="1">
          <mxGeometry x="360" y="690" width="120" height="40" as="geometry" />
        </mxCell>
        <mxCell id="pjobG9JPlgg_OYao3Cxb-30" style="edgeStyle=orthogonalEdgeStyle;rounded=0;orthogonalLoop=1;jettySize=auto;html=1;entryX=0.5;entryY=0;entryDx=0;entryDy=0;" edge="1" parent="1" source="pjobG9JPlgg_OYao3Cxb-24" target="pjobG9JPlgg_OYao3Cxb-26">
          <mxGeometry relative="1" as="geometry" />
        </mxCell>
        <mxCell id="pjobG9JPlgg_OYao3Cxb-24" value="MVK 0x8600, B1" style="rounded=0;whiteSpace=wrap;html=1;" vertex="1" parent="1">
          <mxGeometry x="520" y="330" width="120" height="40" as="geometry" />
        </mxCell>
        <mxCell id="pjobG9JPlgg_OYao3Cxb-32" style="edgeStyle=orthogonalEdgeStyle;rounded=0;orthogonalLoop=1;jettySize=auto;html=1;entryX=0.5;entryY=0;entryDx=0;entryDy=0;" edge="1" parent="1" source="pjobG9JPlgg_OYao3Cxb-26" target="pjobG9JPlgg_OYao3Cxb-27">
          <mxGeometry relative="1" as="geometry" />
        </mxCell>
        <mxCell id="pjobG9JPlgg_OYao3Cxb-26" value="&lt;div&gt;&amp;nbsp; MVKLH 0x4C5A, B1&lt;/div&gt;" style="rounded=0;whiteSpace=wrap;html=1;" vertex="1" parent="1">
          <mxGeometry x="520" y="390" width="120" height="40" as="geometry" />
        </mxCell>
        <mxCell id="pjobG9JPlgg_OYao3Cxb-33" style="edgeStyle=orthogonalEdgeStyle;rounded=0;orthogonalLoop=1;jettySize=auto;html=1;entryX=0.5;entryY=0;entryDx=0;entryDy=0;" edge="1" parent="1" source="pjobG9JPlgg_OYao3Cxb-27" target="pjobG9JPlgg_OYao3Cxb-28">
          <mxGeometry relative="1" as="geometry" />
        </mxCell>
        <mxCell id="pjobG9JPlgg_OYao3Cxb-27" value="&lt;div&gt;&amp;nbsp; MVK 0x5D03, B2&lt;/div&gt;" style="rounded=0;whiteSpace=wrap;html=1;" vertex="1" parent="1">
          <mxGeometry x="520" y="450" width="120" height="40" as="geometry" />
        </mxCell>
        <mxCell id="pjobG9JPlgg_OYao3Cxb-35" style="edgeStyle=orthogonalEdgeStyle;rounded=0;orthogonalLoop=1;jettySize=auto;html=1;entryX=0.5;entryY=0;entryDx=0;entryDy=0;" edge="1" parent="1" source="pjobG9JPlgg_OYao3Cxb-28" target="pjobG9JPlgg_OYao3Cxb-34">
          <mxGeometry relative="1" as="geometry" />
        </mxCell>
        <mxCell id="pjobG9JPlgg_OYao3Cxb-28" value="&lt;div&gt;&amp;nbsp; MVKLH 0x78B0, B2&lt;/div&gt;" style="rounded=0;whiteSpace=wrap;html=1;" vertex="1" parent="1">
          <mxGeometry x="520" y="510" width="120" height="40" as="geometry" />
        </mxCell>
        <mxCell id="pjobG9JPlgg_OYao3Cxb-38" value="" style="edgeStyle=orthogonalEdgeStyle;rounded=0;orthogonalLoop=1;jettySize=auto;html=1;" edge="1" parent="1" source="pjobG9JPlgg_OYao3Cxb-34" target="pjobG9JPlgg_OYao3Cxb-36">
          <mxGeometry relative="1" as="geometry" />
        </mxCell>
        <mxCell id="pjobG9JPlgg_OYao3Cxb-34" value="&lt;div&gt;&amp;nbsp; ADD B1, B2, B3&lt;/div&gt;" style="rounded=0;whiteSpace=wrap;html=1;" vertex="1" parent="1">
          <mxGeometry x="520" y="570" width="120" height="40" as="geometry" />
        </mxCell>
        <mxCell id="pjobG9JPlgg_OYao3Cxb-39" style="edgeStyle=orthogonalEdgeStyle;rounded=0;orthogonalLoop=1;jettySize=auto;html=1;entryX=0.5;entryY=0;entryDx=0;entryDy=0;" edge="1" parent="1" source="pjobG9JPlgg_OYao3Cxb-36" target="pjobG9JPlgg_OYao3Cxb-22">
          <mxGeometry relative="1" as="geometry" />
        </mxCell>
        <mxCell id="pjobG9JPlgg_OYao3Cxb-36" value="&lt;div&gt;&amp;nbsp; ABS B3, B4&lt;/div&gt;" style="rounded=0;whiteSpace=wrap;html=1;" vertex="1" parent="1">
          <mxGeometry x="520" y="630" width="120" height="40" as="geometry" />
        </mxCell>
      </root>
    </mxGraphModel>
  </diagram>
</mxfile>
